<svg width="24" height="24" viewBox="0 0 24 24" fill="none" xmlns="http://www.w3.org/2000/svg">
<g filter="url(#filter0_d_426_13)">
<path fill-rule="evenodd" clip-rule="evenodd" d="M10.4268 12.4075V8.91494C10.3203 8.95166 10.2156 8.99251 10.1125 9.03746L10.1059 9.04033C9.53976 9.28226 9.04892 9.61796 8.62614 10.0503C8.20258 10.4835 7.86788 10.9905 7.62214 11.5796C7.38878 12.147 7.26758 12.769 7.26758 13.4557C7.26758 14.125 7.38958 14.7381 7.627 15.3049C7.87673 15.8812 8.216 16.384 8.64659 16.8199C9.08215 17.255 9.58374 17.5956 10.1577 17.8444C10.7245 18.0818 11.3376 18.2038 12.0068 18.2038C12.6704 18.2038 13.2776 18.0817 13.8385 17.8443C14.4191 17.5952 14.9194 17.2549 15.3475 16.8219L15.3515 16.818C15.7884 16.3811 16.1301 15.8777 16.3794 15.3015C16.6217 14.7354 16.7461 14.1235 16.7461 13.4557V12.4557H20.9961V13.4557C20.9961 14.695 20.7671 15.8687 20.3014 16.9664C19.8414 18.0507 19.195 19.0109 18.3653 19.8406C17.5414 20.6645 16.5846 21.3074 15.5022 21.7669C14.4055 22.2385 13.2369 22.4713 12.0068 22.4713C10.7711 22.4713 9.59705 22.2386 8.49464 21.7673C7.41191 21.3077 6.45493 20.6647 5.63078 19.8406L5.62513 19.8349C4.81014 19.0068 4.16969 18.05 3.70546 16.9711C3.23265 15.8723 3 14.6969 3 13.4557C3 12.2235 3.22559 11.0566 3.6847 9.96538L3.68586 9.96263C4.14463 8.88125 4.78132 7.92913 5.59563 7.11482C6.41404 6.29641 7.36504 5.65656 8.44142 5.19713C9.07816 4.92535 9.74062 4.73376 10.4268 4.62142V1L16.9453 6.70377L10.4268 12.4075Z" fill="white"/>
</g>
<path fill-rule="evenodd" clip-rule="evenodd" d="M11.4268 7.69308V10.2038L15.4268 6.70377L11.4268 3.20377V5.51604C10.5121 5.56922 9.64781 5.76949 8.83398 6.11685C7.87305 6.52701 7.0293 7.09537 6.30273 7.82193C5.58203 8.54263 5.0166 9.38638 4.60645 10.3532C4.20215 11.3141 4 12.3483 4 13.4557C4 14.569 4.20801 15.609 4.62402 16.5758C5.04004 17.5426 5.61133 18.3952 6.33789 19.1335C7.07031 19.8659 7.91992 20.4372 8.88672 20.8473C9.85938 21.2633 10.8994 21.4713 12.0068 21.4713C13.1084 21.4713 14.1426 21.2633 15.1094 20.8473C16.0762 20.4372 16.9258 19.8659 17.6582 19.1335C18.3965 18.3952 18.9707 17.5426 19.3809 16.5758C19.791 15.609 19.9961 14.569 19.9961 13.4557H17.7461C17.7461 14.2526 17.5967 14.9997 17.2979 15.6969C16.999 16.3883 16.5859 16.9977 16.0586 17.5251C15.5371 18.0524 14.9277 18.4655 14.2305 18.7643C13.5391 19.0573 12.7979 19.2038 12.0068 19.2038C11.21 19.2038 10.4629 19.0573 9.76562 18.7643C9.07422 18.4655 8.46484 18.0524 7.9375 17.5251C7.41602 16.9977 7.00586 16.3883 6.70703 15.6969C6.41406 14.9997 6.26758 14.2526 6.26758 13.4557C6.26758 12.6471 6.41113 11.8942 6.69824 11.1969C6.99121 10.4938 7.39551 9.87857 7.91113 9.35123C8.42676 8.82388 9.02734 8.41373 9.71289 8.12076C10.2516 7.88593 10.8229 7.74337 11.4268 7.69308Z" fill="black"/>
<defs>
<filter id="filter0_d_426_13" x="1.2" y="0.2" width="21.5961" height="25.0713" filterUnits="userSpaceOnUse" color-interpolation-filters="sRGB">
<feFlood flood-opacity="0" result="BackgroundImageFix"/>
<feColorMatrix in="SourceAlpha" type="matrix" values="0 0 0 0 0 0 0 0 0 0 0 0 0 0 0 0 0 0 127 0" result="hardAlpha"/>
<feOffset dy="1"/>
<feGaussianBlur stdDeviation="0.9"/>
<feColorMatrix type="matrix" values="0 0 0 0 0 0 0 0 0 0 0 0 0 0 0 0 0 0 0.65 0"/>
<feBlend mode="normal" in2="BackgroundImageFix" result="effect1_dropShadow_426_13"/>
<feBlend mode="normal" in="SourceGraphic" in2="effect1_dropShadow_426_13" result="shape"/>
</filter>
</defs>
</svg>
